<svg xmlns="http://www.w3.org/2000/svg" xmlns:xlink="http://www.w3.org/1999/xlink" width="77" zoomAndPan="magnify" viewBox="0 0 57.75 54" height="72" preserveAspectRatio="xMidYMid meet" version="1.0"><defs><clipPath id="b30698b227"><path d="M 0.460938 0.605469 L 57.046875 0.605469 L 57.046875 52.148438 L 0.460938 52.148438 Z M 0.460938 0.605469 " clip-rule="nonzero"/></clipPath></defs><path fill="#ffffff" d="M 47.226562 42.617188 C 47.652344 42.617188 47.996094 42.269531 47.996094 41.847656 C 47.996094 41.421875 47.652344 41.078125 47.226562 41.078125 C 46.800781 41.078125 46.457031 41.421875 46.457031 41.847656 C 46.457031 42.269531 46.800781 42.617188 47.226562 42.617188 " fill-opacity="1" fill-rule="nonzero"/><g clip-path="url(#b30698b227)"><path fill="#ffffff" d="M 46.675781 27.816406 L 44.832031 27.09375 L 52.378906 7.851562 L 54.222656 8.574219 Z M 51.027344 38.871094 L 5.246094 38.871094 L 5.246094 21.777344 L 5.882812 21.777344 L 5.882812 37.957031 L 50.390625 37.957031 L 50.390625 21.464844 L 51.027344 19.835938 Z M 32.9375 49.097656 L 23.335938 49.097656 L 24.15625 45.289062 L 32.117188 45.289062 Z M 36.140625 51.265625 L 20.132812 51.265625 L 20.132812 50.238281 L 36.140625 50.238281 Z M 51.027344 41.703125 C 51.027344 42.195312 50.871094 42.65625 50.601562 43.039062 C 50.132812 43.707031 49.328125 44.148438 48.414062 44.148438 L 7.859375 44.148438 C 6.417969 44.148438 5.246094 43.050781 5.246094 41.703125 L 5.246094 40.007812 L 51.027344 40.007812 Z M 1.597656 20.640625 L 1.597656 17.660156 L 8.082031 11.46875 L 13.90625 18.25 L 17.847656 14.414062 L 20.996094 17.648438 L 20.996094 20.640625 Z M 8.835938 7.589844 L 20.996094 7.589844 L 20.996094 16.015625 L 17.871094 12.804688 L 13.980469 16.589844 L 8.164062 9.816406 L 1.597656 16.089844 L 1.597656 7.589844 Z M 9.976562 4.863281 C 9.976562 3.378906 11.28125 2.171875 12.890625 2.171875 L 43.742188 2.171875 C 45.347656 2.171875 46.65625 3.378906 46.65625 4.863281 L 46.65625 10.773438 L 40.867188 25.539062 L 40.53125 26.398438 L 41.1875 29.316406 C 41.121094 29.5 41.089844 29.691406 41.09375 29.882812 L 41.167969 32.464844 C 41.179688 32.90625 41.398438 33.253906 41.75 33.390625 C 41.855469 33.429688 41.960938 33.453125 42.066406 33.453125 C 42.328125 33.453125 42.589844 33.332031 42.808594 33.109375 L 44.617188 31.261719 C 44.75 31.128906 44.859375 30.964844 44.933594 30.789062 L 46.65625 29.601562 L 46.65625 34.789062 L 47.796875 34.789062 L 47.796875 28.082031 L 49.25 24.371094 L 49.25 36.816406 L 7.023438 36.816406 L 7.023438 21.777344 L 8.835938 21.777344 L 8.835938 34.789062 L 9.976562 34.789062 L 9.976562 21.777344 L 22.132812 21.777344 L 22.132812 6.449219 L 9.976562 6.449219 Z M 41.929688 25.953125 L 49.472656 6.710938 L 51.316406 7.433594 L 43.773438 26.675781 Z M 42.320312 29.582031 L 42.421875 29.621094 L 43.824219 30.167969 L 43.921875 30.207031 C 43.910156 30.285156 43.875 30.394531 43.804688 30.46875 L 42.292969 32.007812 L 42.234375 29.851562 C 42.230469 29.75 42.277344 29.644531 42.320312 29.582031 Z M 44.839844 29.46875 C 44.742188 29.351562 44.621094 29.261719 44.476562 29.203125 L 42.597656 28.464844 C 42.453125 28.410156 42.304688 28.394531 42.152344 28.417969 L 41.867188 27.152344 L 45.90625 28.738281 Z M 54.378906 7.414062 L 50.148438 5.753906 L 49.890625 5.652344 L 50.207031 4.84375 L 54.953125 6.707031 L 54.636719 7.511719 Z M 51.058594 2.671875 C 51.351562 1.921875 52.203125 1.546875 52.957031 1.84375 L 54.976562 2.636719 C 55.730469 2.929688 56.101562 3.78125 55.804688 4.535156 L 55.449219 5.449219 L 50.699219 3.585938 Z M 55.394531 1.578125 L 53.371094 0.785156 C 52.035156 0.261719 50.523438 0.921875 50 2.257812 L 49.640625 3.171875 L 49.148438 4.429688 L 48.53125 6 C 48.527344 6.007812 48.523438 6.019531 48.515625 6.03125 L 47.796875 7.875 L 47.796875 4.863281 C 47.796875 2.753906 45.976562 1.035156 43.742188 1.035156 L 12.890625 1.035156 C 10.65625 1.035156 8.835938 2.753906 8.835938 4.863281 L 8.835938 6.449219 L 0.460938 6.449219 L 0.460938 21.777344 L 4.105469 21.777344 L 4.105469 41.703125 C 4.105469 43.679688 5.789062 45.289062 7.859375 45.289062 L 22.992188 45.289062 L 22.171875 49.097656 L 18.992188 49.097656 L 18.992188 52.402344 L 37.277344 52.402344 L 37.277344 49.097656 L 34.101562 49.097656 L 33.28125 45.289062 L 48.414062 45.289062 C 48.996094 45.289062 49.546875 45.160156 50.039062 44.933594 C 51.296875 44.355469 52.164062 43.125 52.164062 41.703125 L 52.164062 16.933594 L 55.28125 8.988281 L 56.015625 7.121094 L 56.867188 4.949219 C 57.390625 3.613281 56.730469 2.101562 55.394531 1.578125 " fill-opacity="1" fill-rule="nonzero"/></g><path fill="#ffffff" d="M 14.183594 9.730469 C 14.933594 9.730469 15.542969 10.34375 15.542969 11.09375 C 15.542969 11.84375 14.933594 12.457031 14.183594 12.457031 C 13.429688 12.457031 12.820312 11.84375 12.820312 11.09375 C 12.820312 10.34375 13.429688 9.730469 14.183594 9.730469 Z M 14.183594 13.59375 C 15.5625 13.59375 16.683594 12.472656 16.683594 11.09375 C 16.683594 9.714844 15.5625 8.59375 14.183594 8.59375 C 12.804688 8.59375 11.679688 9.714844 11.679688 11.09375 C 11.679688 12.472656 12.804688 13.59375 14.183594 13.59375 " fill-opacity="1" fill-rule="nonzero"/><path fill="#ffffff" d="M 42.832031 8.800781 L 40 8.800781 L 40 9.941406 L 42.832031 9.941406 L 42.832031 8.800781 " fill-opacity="1" fill-rule="nonzero"/><path fill="#ffffff" d="M 36.960938 8.800781 L 26.019531 8.800781 L 26.019531 9.941406 L 36.960938 9.941406 L 36.960938 8.800781 " fill-opacity="1" fill-rule="nonzero"/><path fill="#ffffff" d="M 32.839844 13.121094 L 42.832031 13.121094 L 42.832031 11.984375 L 32.839844 11.984375 L 32.839844 13.121094 " fill-opacity="1" fill-rule="nonzero"/><path fill="#ffffff" d="M 31.320312 11.984375 L 26.019531 11.984375 L 26.019531 13.121094 L 31.320312 13.121094 L 31.320312 11.984375 " fill-opacity="1" fill-rule="nonzero"/><path fill="#ffffff" d="M 26.535156 17.035156 L 39.144531 17.035156 L 39.144531 15.894531 L 26.535156 15.894531 L 26.535156 17.035156 " fill-opacity="1" fill-rule="nonzero"/><path fill="#ffffff" d="M 32.664062 20.4375 L 39.144531 20.4375 L 39.144531 19.300781 L 32.664062 19.300781 L 32.664062 20.4375 " fill-opacity="1" fill-rule="nonzero"/><path fill="#ffffff" d="M 31.375 19.300781 L 26.535156 19.300781 L 26.535156 20.4375 L 31.375 20.4375 L 31.375 19.300781 " fill-opacity="1" fill-rule="nonzero"/><path fill="#ffffff" d="M 29.898438 23.890625 L 37.984375 23.890625 L 37.984375 22.75 L 29.898438 22.75 L 29.898438 23.890625 " fill-opacity="1" fill-rule="nonzero"/><path fill="#ffffff" d="M 26.535156 23.890625 L 28.957031 23.890625 L 28.957031 22.75 L 26.535156 22.75 L 26.535156 23.890625 " fill-opacity="1" fill-rule="nonzero"/><path fill="#ffffff" d="M 34.792969 28.542969 L 37.621094 28.542969 L 37.621094 27.40625 L 34.792969 27.40625 L 34.792969 28.542969 " fill-opacity="1" fill-rule="nonzero"/><path fill="#ffffff" d="M 26.28125 28.542969 L 33.957031 28.542969 L 33.957031 27.40625 L 26.28125 27.40625 L 26.28125 28.542969 " fill-opacity="1" fill-rule="nonzero"/></svg>