<svg xmlns="http://www.w3.org/2000/svg" xmlns:xlink="http://www.w3.org/1999/xlink" width="77" zoomAndPan="magnify" viewBox="0 0 57.75 54" height="72" preserveAspectRatio="xMidYMid meet" version="1.0"><defs><clipPath id="41906fd2f1"><path d="M 2.613281 19 L 27 19 L 27 36 L 2.613281 36 Z M 2.613281 19 " clip-rule="nonzero"/></clipPath><clipPath id="b39f9e288a"><path d="M 10 39 L 19 39 L 19 53.019531 L 10 53.019531 Z M 10 39 " clip-rule="nonzero"/></clipPath><clipPath id="1895dddf13"><path d="M 22 39 L 31 39 L 31 53.019531 L 22 53.019531 Z M 22 39 " clip-rule="nonzero"/></clipPath><clipPath id="2990eaa46e"><path d="M 40 0.738281 L 54.894531 0.738281 L 54.894531 17 L 40 17 Z M 40 0.738281 " clip-rule="nonzero"/></clipPath></defs><path fill="#ffffff" d="M 20.179688 23.019531 C 16.164062 23.019531 12.894531 19.753906 12.894531 15.738281 C 12.894531 11.71875 16.164062 8.453125 20.179688 8.453125 C 24.195312 8.453125 27.460938 11.71875 27.460938 15.738281 C 27.460938 19.753906 24.195312 23.019531 20.179688 23.019531 Z M 20.179688 9.308594 C 16.632812 9.308594 13.75 12.191406 13.75 15.738281 C 13.75 19.28125 16.632812 22.164062 20.179688 22.164062 C 23.722656 22.164062 26.605469 19.28125 26.605469 15.738281 C 26.605469 12.191406 23.722656 9.308594 20.179688 9.308594 Z M 20.179688 9.308594 " fill-opacity="1" fill-rule="nonzero"/><g clip-path="url(#41906fd2f1)"><path fill="#ffffff" d="M 26.175781 35.875 L 14.179688 35.875 C 13.941406 35.875 13.75 35.683594 13.75 35.445312 L 13.75 29.097656 C 12.390625 29.320312 8.917969 29.875 8.179688 29.875 C 6.109375 29.875 2.613281 22.738281 2.613281 21.734375 C 2.613281 20.632812 3.652344 19.59375 4.753906 19.59375 C 7.171875 19.59375 8.824219 22.785156 9.296875 23.828125 L 14.109375 23.027344 C 14.339844 22.984375 14.5625 23.144531 14.601562 23.378906 C 14.640625 23.613281 14.484375 23.832031 14.25 23.871094 L 9.109375 24.730469 C 8.910156 24.761719 8.714844 24.652344 8.640625 24.464844 C 8.625 24.425781 7.003906 20.449219 4.753906 20.449219 C 4.128906 20.449219 3.46875 21.109375 3.46875 21.734375 C 3.519531 22.726562 6.886719 29.019531 8.179688 29.019531 C 8.855469 29.019531 12.691406 28.40625 14.109375 28.167969 C 14.234375 28.148438 14.363281 28.183594 14.457031 28.265625 C 14.554688 28.34375 14.609375 28.464844 14.609375 28.589844 L 14.609375 35.019531 L 25.75 35.019531 L 25.75 34.589844 C 25.75 34.351562 25.941406 34.160156 26.175781 34.160156 C 26.414062 34.160156 26.605469 34.351562 26.605469 34.589844 L 26.605469 35.445312 C 26.605469 35.683594 26.414062 35.875 26.175781 35.875 Z M 26.175781 35.875 " fill-opacity="1" fill-rule="nonzero"/></g><path fill="#ffffff" d="M 32.175781 29.875 C 31.734375 29.875 30.269531 29.679688 27.824219 29.292969 C 27.589844 29.253906 27.429688 29.035156 27.46875 28.800781 C 27.503906 28.566406 27.730469 28.40625 27.957031 28.445312 C 30.257812 28.808594 31.796875 29.019531 32.175781 29.019531 C 33.472656 29.019531 36.839844 22.726562 36.890625 21.734375 C 36.890625 21.109375 36.226562 20.449219 35.601562 20.449219 C 33.355469 20.449219 31.734375 24.425781 31.714844 24.464844 C 31.640625 24.652344 31.441406 24.761719 31.25 24.730469 L 26.105469 23.871094 C 25.875 23.832031 25.714844 23.613281 25.753906 23.378906 C 25.792969 23.144531 26.019531 22.984375 26.246094 23.027344 L 31.058594 23.828125 C 31.535156 22.785156 33.183594 19.59375 35.601562 19.59375 C 36.703125 19.59375 37.746094 20.632812 37.746094 21.734375 C 37.746094 22.738281 34.25 29.875 32.175781 29.875 Z M 32.175781 29.875 " fill-opacity="1" fill-rule="nonzero"/><path fill="#ffffff" d="M 20.179688 44.445312 C 18.308594 44.445312 17.34375 43.503906 17.304688 43.460938 C 17.257812 43.414062 17.222656 43.359375 17.199219 43.292969 C 16.421875 40.953125 14.066406 40.144531 14.042969 40.136719 C 13.917969 40.09375 13.816406 39.996094 13.773438 39.867188 C 12.871094 37.160156 13.757812 35.332031 13.796875 35.253906 C 13.902344 35.042969 14.160156 34.957031 14.371094 35.0625 C 14.582031 35.167969 14.667969 35.425781 14.5625 35.636719 C 14.558594 35.652344 13.84375 37.15625 14.527344 39.40625 C 15.183594 39.675781 17.171875 40.660156 17.976562 42.914062 C 18.1875 43.085938 18.914062 43.585938 20.179688 43.585938 C 21.441406 43.585938 22.164062 43.085938 22.382812 42.914062 C 23.183594 40.660156 25.175781 39.675781 25.832031 39.40625 C 26.515625 37.15625 25.800781 35.652344 25.792969 35.636719 C 25.6875 35.425781 25.777344 35.167969 25.988281 35.0625 C 26.199219 34.957031 26.453125 35.042969 26.558594 35.253906 C 26.597656 35.332031 27.484375 37.160156 26.582031 39.867188 C 26.542969 39.992188 26.441406 40.09375 26.3125 40.136719 C 26.289062 40.144531 23.933594 40.96875 23.15625 43.292969 C 23.136719 43.359375 23.097656 43.414062 23.050781 43.460938 C 23.011719 43.503906 22.046875 44.445312 20.179688 44.445312 Z M 20.179688 44.445312 " fill-opacity="1" fill-rule="nonzero"/><g clip-path="url(#b39f9e288a)"><path fill="#ffffff" d="M 15.730469 53.015625 C 13.140625 53.015625 10.324219 47.226562 10.324219 45.730469 C 10.324219 43.011719 13.730469 39.574219 13.878906 39.429688 C 14.042969 39.261719 14.316406 39.261719 14.484375 39.429688 C 14.648438 39.597656 14.648438 39.867188 14.484375 40.035156 C 14.449219 40.066406 11.179688 43.367188 11.179688 45.730469 C 11.179688 46.839844 13.742188 52.15625 15.730469 52.15625 C 16.679688 52.15625 17.179688 51.367188 17.179688 50.585938 C 17.179688 49.039062 15.566406 46.867188 15.550781 46.84375 C 15.496094 46.769531 15.464844 46.679688 15.464844 46.585938 C 15.464844 45.648438 16.953125 43.367188 17.25 42.921875 C 17.382812 42.722656 17.648438 42.671875 17.84375 42.800781 C 18.042969 42.933594 18.09375 43.199219 17.964844 43.398438 C 17.328125 44.347656 16.453125 45.859375 16.335938 46.46875 C 16.714844 47.003906 18.035156 48.984375 18.035156 50.585938 C 18.035156 51.972656 17.042969 53.015625 15.730469 53.015625 Z M 15.730469 53.015625 " fill-opacity="1" fill-rule="nonzero"/></g><g clip-path="url(#1895dddf13)"><path fill="#ffffff" d="M 24.628906 53.015625 C 23.3125 53.015625 22.320312 51.972656 22.320312 50.585938 C 22.320312 48.984375 23.640625 47.003906 24.019531 46.46875 C 23.902344 45.859375 23.027344 44.347656 22.394531 43.398438 C 22.261719 43.199219 22.316406 42.933594 22.511719 42.800781 C 22.707031 42.671875 22.972656 42.722656 23.105469 42.921875 C 23.402344 43.367188 24.890625 45.648438 24.890625 46.585938 C 24.890625 46.679688 24.863281 46.769531 24.804688 46.84375 C 24.789062 46.867188 23.179688 49.039062 23.179688 50.585938 C 23.179688 51.367188 23.675781 52.15625 24.628906 52.15625 C 26.613281 52.15625 29.175781 46.839844 29.175781 45.730469 C 29.175781 43.367188 25.90625 40.066406 25.875 40.035156 C 25.707031 39.867188 25.707031 39.597656 25.875 39.429688 C 26.042969 39.261719 26.3125 39.261719 26.480469 39.429688 C 26.625 39.574219 30.035156 43.011719 30.035156 45.730469 C 30.035156 47.226562 27.21875 53.015625 24.628906 53.015625 Z M 24.464844 46.585938 L 24.472656 46.585938 Z M 24.464844 46.585938 " fill-opacity="1" fill-rule="nonzero"/></g><path fill="#ffffff" d="M 20.179688 31.589844 C 18.523438 31.589844 17.179688 30.246094 17.179688 28.589844 C 17.179688 26.9375 18.523438 25.59375 20.179688 25.59375 C 21.832031 25.59375 23.179688 26.9375 23.179688 28.589844 C 23.179688 30.246094 21.832031 31.589844 20.179688 31.589844 Z M 20.179688 26.449219 C 18.996094 26.449219 18.035156 27.410156 18.035156 28.589844 C 18.035156 29.773438 18.996094 30.734375 20.179688 30.734375 C 21.359375 30.734375 22.320312 29.773438 22.320312 28.589844 C 22.320312 27.410156 21.359375 26.449219 20.179688 26.449219 Z M 20.179688 26.449219 " fill-opacity="1" fill-rule="nonzero"/><g clip-path="url(#2990eaa46e)"><path fill="#ffffff" d="M 47.601562 16.164062 C 44.949219 16.164062 40.476562 14.386719 40.316406 2.476562 C 40.3125 2.019531 40.492188 1.574219 40.8125 1.25 C 41.132812 0.925781 41.574219 0.742188 42.03125 0.742188 L 43.3125 0.742188 C 43.546875 0.742188 43.738281 0.933594 43.738281 1.167969 C 43.738281 1.40625 43.546875 1.597656 43.3125 1.597656 L 42.03125 1.597656 C 41.800781 1.597656 41.582031 1.6875 41.421875 1.851562 C 41.261719 2.015625 41.171875 2.238281 41.171875 2.46875 C 41.285156 10.746094 43.566406 15.308594 47.601562 15.308594 C 51.636719 15.308594 53.917969 10.746094 54.027344 2.464844 C 54.03125 2.238281 53.941406 2.015625 53.78125 1.851562 C 53.617188 1.6875 53.402344 1.597656 53.167969 1.597656 L 51.890625 1.597656 C 51.652344 1.597656 51.460938 1.40625 51.460938 1.167969 C 51.460938 0.933594 51.652344 0.742188 51.890625 0.742188 L 53.167969 0.742188 C 53.625 0.742188 54.070312 0.925781 54.390625 1.25 C 54.710938 1.574219 54.890625 2.019531 54.882812 2.476562 C 54.726562 14.386719 50.253906 16.164062 47.601562 16.164062 Z M 47.601562 16.164062 " fill-opacity="1" fill-rule="nonzero"/></g><path fill="#ffffff" d="M 38.175781 39.304688 C 35.023438 39.304688 31.914062 36.644531 28.910156 34.070312 C 26.804688 32.269531 24.628906 30.40625 22.527344 29.542969 C 22.308594 29.453125 22.203125 29.203125 22.292969 28.984375 C 22.382812 28.765625 22.636719 28.664062 22.851562 28.75 C 25.082031 29.664062 27.3125 31.574219 29.46875 33.417969 C 32.355469 35.890625 35.339844 38.445312 38.175781 38.445312 C 44.144531 38.445312 47.171875 33.6875 47.171875 24.304688 L 47.171875 15.738281 C 47.171875 15.5 47.363281 15.308594 47.601562 15.308594 C 47.835938 15.308594 48.027344 15.5 48.027344 15.738281 L 48.027344 24.304688 C 48.027344 34.117188 44.621094 39.304688 38.175781 39.304688 Z M 38.175781 39.304688 " fill-opacity="1" fill-rule="nonzero"/></svg>