<svg xmlns="http://www.w3.org/2000/svg" xmlns:xlink="http://www.w3.org/1999/xlink" width="77" zoomAndPan="magnify" viewBox="0 0 57.75 54" height="72" preserveAspectRatio="xMidYMid meet" version="1.0"><defs><clipPath id="a65365cec0"><path d="M 2.621094 0.378906 L 54.902344 0.378906 L 54.902344 52.660156 L 2.621094 52.660156 Z M 2.621094 0.378906 " clip-rule="nonzero"/></clipPath></defs><g clip-path="url(#a65365cec0)"><path fill="#ffffff" d="M 6.148438 26.386719 C 6.148438 13.96875 16.214844 3.902344 28.628906 3.902344 C 41.046875 3.902344 51.113281 13.96875 51.113281 26.386719 C 51.113281 29.160156 50.613281 31.808594 49.699219 34.257812 C 49.347656 35.199219 49.824219 36.25 50.769531 36.601562 C 51.710938 36.953125 52.761719 36.476562 53.113281 35.53125 C 54.179688 32.683594 54.757812 29.601562 54.757812 26.386719 C 54.757812 11.957031 43.0625 0.257812 28.628906 0.257812 C 14.199219 0.257812 2.5 11.957031 2.5 26.386719 C 2.5 40.816406 14.199219 52.515625 28.628906 52.515625 C 29.960938 52.515625 31.269531 52.417969 32.546875 52.222656 C 33.542969 52.074219 34.230469 51.144531 34.078125 50.152344 C 33.929688 49.15625 33 48.46875 32.003906 48.621094 C 30.90625 48.785156 29.777344 48.871094 28.628906 48.871094 C 16.214844 48.871094 6.148438 38.804688 6.148438 26.386719 Z M 6.148438 26.386719 " fill-opacity="1" fill-rule="nonzero"/></g><path fill="#ffffff" d="M 38.351562 41.578125 C 37.347656 41.578125 36.53125 42.394531 36.53125 43.402344 C 36.53125 44.410156 37.347656 45.222656 38.351562 45.222656 L 41.390625 45.222656 L 41.390625 48.261719 C 41.390625 49.269531 42.207031 50.085938 43.214844 50.085938 C 44.222656 50.085938 45.039062 49.269531 45.039062 48.261719 L 45.039062 45.222656 L 48.074219 45.222656 C 49.082031 45.222656 49.898438 44.410156 49.898438 43.402344 C 49.898438 42.394531 49.082031 41.578125 48.074219 41.578125 L 45.039062 41.578125 L 45.039062 38.539062 C 45.039062 37.535156 44.222656 36.71875 43.214844 36.71875 C 42.207031 36.71875 41.390625 37.535156 41.390625 38.539062 L 41.390625 41.578125 Z M 38.351562 41.578125 " fill-opacity="1" fill-rule="nonzero"/><path fill="#ffffff" d="M 22.871094 17.507812 C 23.441406 17.183594 24.144531 17.195312 24.707031 17.53125 L 36.859375 24.824219 C 37.410156 25.152344 37.746094 25.746094 37.746094 26.386719 C 37.746094 27.027344 37.410156 27.621094 36.859375 27.949219 L 24.707031 35.242188 C 24.144531 35.578125 23.441406 35.589844 22.871094 35.265625 C 22.300781 34.941406 21.945312 34.335938 21.945312 33.679688 L 21.945312 19.09375 C 21.945312 18.4375 22.300781 17.832031 22.871094 17.507812 Z M 22.871094 17.507812 " fill-opacity="1" fill-rule="nonzero"/></svg>