<svg xmlns="http://www.w3.org/2000/svg" xmlns:xlink="http://www.w3.org/1999/xlink" width="77" zoomAndPan="magnify" viewBox="0 0 57.75 54" height="72" preserveAspectRatio="xMidYMid meet" version="1.0"><defs><clipPath id="3cfc01ef96"><path d="M 5.203125 0.378906 L 52.328125 0.378906 L 52.328125 52.660156 L 5.203125 52.660156 Z M 5.203125 0.378906 " clip-rule="nonzero"/></clipPath></defs><g clip-path="url(#3cfc01ef96)"><path fill="#ffffff" d="M 49.5 11.28125 C 49.574219 10.59375 49.570312 9.917969 49.429688 9.332031 C 49.351562 9.039062 49.242188 8.777344 49.09375 8.558594 C 48.929688 8.324219 48.734375 8.101562 48.503906 7.898438 C 48.058594 7.496094 47.527344 7.171875 46.984375 6.898438 C 46.429688 6.621094 45.863281 6.394531 45.300781 6.199219 C 43.027344 5.421875 40.832031 5.054688 38.882812 4.722656 C 37.894531 4.570312 36.972656 4.425781 36.109375 4.292969 C 35.675781 4.222656 35.253906 4.152344 34.847656 4.078125 C 34.648438 4.042969 34.417969 4.003906 34.230469 3.957031 C 34.039062 3.910156 33.847656 3.863281 33.667969 3.816406 C 32.195312 3.445312 30.992188 3.171875 30.007812 2.972656 C 28.054688 2.578125 27.058594 2.480469 27.058594 2.480469 C 26.75 2.4375 26.464844 2.394531 26.199219 2.355469 C 25.933594 2.328125 25.695312 2.292969 25.476562 2.253906 C 25.359375 2.230469 25.242188 2.210938 25.136719 2.191406 C 25.039062 2.222656 24.933594 2.265625 24.828125 2.316406 C 24.425781 2.527344 23.976562 2.925781 23.617188 3.613281 C 23.425781 3.941406 23.277344 4.34375 23.105469 4.789062 C 22.921875 5.238281 22.730469 5.714844 22.523438 6.214844 C 22.121094 7.210938 21.675781 8.300781 21.199219 9.472656 C 20.964844 10.058594 20.71875 10.664062 20.46875 11.285156 C 20.199219 11.902344 19.921875 12.539062 19.640625 13.1875 C 19.101562 14.503906 18.414062 15.835938 17.730469 17.226562 C 17.648438 17.398438 17.5625 17.574219 17.476562 17.75 C 17.382812 17.925781 17.28125 18.101562 17.183594 18.273438 C 16.980469 18.617188 16.769531 18.953125 16.558594 19.289062 C 16.125 19.957031 15.6875 20.628906 15.242188 21.3125 C 13.464844 24.027344 11.800781 26.636719 10.433594 29.09375 C 9.0625 31.542969 7.988281 33.839844 7.34375 35.832031 C 7.019531 36.824219 6.808594 37.738281 6.710938 38.539062 C 6.617188 39.335938 6.632812 40.011719 6.730469 40.53125 C 6.824219 41.050781 6.976562 41.414062 7.105469 41.636719 C 7.160156 41.753906 7.21875 41.832031 7.253906 41.886719 C 7.292969 41.941406 7.308594 41.96875 7.308594 41.96875 C 7.5625 42.328125 7.769531 42.585938 7.90625 42.808594 C 7.933594 42.835938 7.957031 42.855469 7.988281 42.875 C 7.988281 42.875 8.167969 43.015625 8.570312 43.246094 C 8.972656 43.476562 9.621094 43.789062 10.539062 44.109375 C 11.457031 44.433594 12.648438 44.757812 14.101562 45.066406 C 14.828125 45.222656 15.621094 45.375 16.480469 45.535156 C 16.914062 45.621094 17.359375 45.707031 17.824219 45.796875 C 18.058594 45.84375 18.296875 45.898438 18.542969 45.957031 C 18.800781 46.015625 19.046875 46.097656 19.296875 46.175781 C 21.234375 46.8125 23.273438 47.703125 25.601562 48.390625 C 26.757812 48.726562 27.996094 49.015625 29.269531 49.070312 C 29.902344 49.09375 30.542969 49.046875 31.140625 48.871094 C 31.445312 48.789062 31.730469 48.664062 32 48.511719 C 32.269531 48.359375 32.511719 48.160156 32.777344 47.921875 C 33.832031 47.015625 34.679688 45.796875 35.425781 44.4375 C 36.167969 43.078125 36.804688 41.574219 37.488281 40.003906 C 37.828125 39.214844 38.179688 38.410156 38.582031 37.605469 C 38.78125 37.207031 39.015625 36.796875 39.230469 36.398438 C 39.449219 36.011719 39.667969 35.617188 39.894531 35.226562 C 40.332031 34.433594 40.78125 33.632812 41.238281 32.820312 C 41.664062 31.988281 42.0625 31.128906 42.488281 30.265625 C 42.695312 29.832031 42.90625 29.402344 43.113281 28.976562 C 43.3125 28.550781 43.480469 28.109375 43.667969 27.679688 C 44.027344 26.820312 44.382812 25.972656 44.730469 25.136719 C 45.066406 24.292969 45.359375 23.449219 45.664062 22.625 C 45.816406 22.210938 45.96875 21.800781 46.121094 21.398438 C 46.191406 21.195312 46.269531 20.988281 46.339844 20.792969 C 46.421875 20.582031 46.5 20.375 46.582031 20.171875 C 47.234375 18.578125 47.878906 17.078125 48.398438 15.601562 C 48.921875 14.125 49.347656 12.671875 49.5 11.28125 Z M 50.921875 15.007812 C 51.179688 13.976562 51.414062 12.898438 51.128906 11.882812 C 51.011719 11.484375 50.835938 11.09375 50.613281 10.695312 C 50.601562 10.929688 50.585938 11.167969 50.5625 11.40625 C 50.476562 12.125 50.328125 12.828125 50.140625 13.527344 C 49.769531 14.929688 49.265625 16.308594 48.707031 17.691406 C 48.15625 19.078125 47.523438 20.445312 47.015625 21.875 C 45.964844 24.765625 44.808594 27.75 43.378906 30.691406 C 43.023438 31.429688 42.667969 32.15625 42.320312 32.886719 C 41.953125 33.605469 41.542969 34.296875 41.160156 34.992188 C 40.773438 35.691406 40.386719 36.382812 40.003906 37.0625 C 39.632812 37.722656 39.300781 38.40625 38.984375 39.097656 C 37.742188 41.871094 36.730469 44.734375 34.972656 47.101562 C 34.515625 47.679688 34.046875 48.25 33.492188 48.714844 C 33.226562 48.949219 32.945312 49.207031 32.613281 49.398438 C 32.285156 49.605469 31.9375 49.753906 31.585938 49.875 C 30.164062 50.316406 28.75 50.199219 27.476562 49.988281 C 24.90625 49.53125 22.6875 48.644531 20.671875 47.933594 C 20.167969 47.757812 19.675781 47.585938 19.199219 47.429688 C 18.960938 47.351562 18.726562 47.28125 18.503906 47.21875 C 18.285156 47.164062 18.054688 47.109375 17.824219 47.066406 C 16.894531 46.882812 15.984375 46.738281 15.140625 46.585938 C 13.445312 46.285156 11.980469 45.964844 10.789062 45.621094 C 9.601562 45.273438 8.6875 44.902344 8.078125 44.585938 C 7.925781 44.5 7.792969 44.429688 7.679688 44.367188 C 7.566406 44.300781 7.46875 44.238281 7.394531 44.191406 C 7.382812 44.191406 7.378906 44.183594 7.371094 44.179688 C 7.554688 44.460938 7.773438 44.71875 8.011719 44.949219 C 8.878906 45.777344 9.996094 46.285156 11.078125 46.695312 C 11.625 46.898438 12.164062 47.078125 12.710938 47.25 C 13.25 47.421875 13.777344 47.617188 14.292969 47.792969 C 15.316406 48.148438 16.292969 48.503906 17.207031 48.8125 C 19.035156 49.425781 20.660156 50.015625 22.128906 50.417969 C 22.496094 50.519531 22.847656 50.617188 23.191406 50.707031 C 23.539062 50.800781 23.871094 50.871094 24.195312 50.949219 C 24.839844 51.113281 25.449219 51.214844 26.007812 51.328125 C 26.777344 51.472656 27.460938 51.566406 28.078125 51.628906 C 28.773438 51.65625 29.53125 51.675781 30.316406 51.566406 C 31.160156 51.464844 32.042969 51.273438 32.890625 50.878906 C 33.734375 50.488281 34.535156 49.910156 35.226562 49.164062 C 35.589844 48.796875 35.863281 48.394531 36.175781 47.960938 C 36.320312 47.71875 36.46875 47.476562 36.617188 47.234375 L 36.671875 47.140625 L 36.679688 47.125 L 36.6875 47.117188 L 36.710938 47.070312 L 37.015625 46.507812 C 37.570312 45.496094 38.097656 44.503906 38.636719 43.546875 C 38.914062 43.066406 39.183594 42.597656 39.453125 42.136719 C 39.730469 41.691406 40.011719 41.265625 40.285156 40.84375 C 40.417969 40.632812 40.554688 40.421875 40.6875 40.214844 C 40.8125 40.015625 40.9375 39.820312 41.058594 39.625 C 41.117188 39.527344 41.179688 39.433594 41.242188 39.335938 C 41.292969 39.238281 41.347656 39.136719 41.402344 39.039062 C 41.511719 38.839844 41.617188 38.648438 41.722656 38.457031 C 42.125 37.6875 42.472656 36.941406 42.789062 36.257812 C 43.410156 34.886719 43.949219 33.769531 44.378906 33.023438 C 44.515625 32.796875 44.632812 32.609375 44.738281 32.453125 C 44.800781 32.308594 44.863281 32.160156 44.929688 31.996094 C 45.046875 31.71875 45.152344 31.398438 45.289062 31.054688 C 45.421875 30.710938 45.570312 30.328125 45.730469 29.914062 C 45.886719 29.488281 46.054688 29.03125 46.234375 28.539062 C 46.605469 27.546875 47.03125 26.402344 47.519531 25.085938 C 48 23.765625 48.585938 22.300781 49.128906 20.632812 C 49.257812 20.210938 49.386719 19.78125 49.527344 19.335938 C 49.664062 18.878906 49.816406 18.40625 49.980469 17.941406 C 50.300781 17.003906 50.648438 16.03125 50.921875 15.007812 Z M 52.273438 12.59375 C 52.277344 12.757812 52.3125 12.925781 52.289062 13.078125 C 52.273438 13.234375 52.257812 13.390625 52.242188 13.542969 C 52.175781 14.15625 52.042969 14.722656 51.898438 15.265625 C 51.605469 16.351562 51.242188 17.339844 50.914062 18.265625 C 50.746094 18.730469 50.597656 19.175781 50.457031 19.609375 C 50.3125 20.0625 50.171875 20.503906 50.035156 20.933594 C 49.449219 22.632812 48.832031 24.097656 48.316406 25.398438 C 47.792969 26.699219 47.328125 27.828125 46.917969 28.804688 C 46.710938 29.292969 46.527344 29.746094 46.339844 30.160156 C 46.148438 30.570312 45.980469 30.941406 45.820312 31.285156 C 45.660156 31.621094 45.527344 31.929688 45.378906 32.199219 C 45.230469 32.460938 45.101562 32.695312 44.988281 32.902344 C 44.902344 33.058594 44.820312 33.191406 44.75 33.3125 C 44.457031 34.097656 44.050781 35.210938 43.542969 36.574219 C 43.277344 37.285156 42.964844 38.058594 42.582031 38.886719 C 42.484375 39.089844 42.378906 39.296875 42.277344 39.507812 C 42.226562 39.613281 42.175781 39.71875 42.121094 39.828125 C 42.0625 39.929688 42 40.035156 41.941406 40.140625 C 41.816406 40.355469 41.695312 40.566406 41.566406 40.785156 C 41.449219 40.984375 41.316406 41.203125 41.1875 41.414062 C 40.929688 41.84375 40.660156 42.277344 40.394531 42.722656 C 40.140625 43.175781 39.890625 43.632812 39.628906 44.101562 C 39.113281 45.058594 38.578125 46.046875 38.03125 47.0625 L 37.828125 47.445312 L 37.722656 47.632812 L 37.699219 47.679688 L 37.660156 47.746094 L 37.601562 47.839844 C 37.457031 48.078125 37.308594 48.324219 37.160156 48.558594 C 36.820312 49.042969 36.460938 49.546875 36.050781 49.945312 C 35.253906 50.785156 34.304688 51.441406 33.320312 51.859375 C 32.335938 52.28125 31.332031 52.457031 30.40625 52.527344 C 29.480469 52.601562 28.621094 52.527344 27.855469 52.441406 C 27.046875 52.332031 26.339844 52.179688 25.730469 52.023438 C 25.195312 51.941406 24.625 51.863281 24.027344 51.730469 C 23.695312 51.660156 23.351562 51.597656 22.996094 51.515625 C 22.644531 51.425781 22.28125 51.335938 21.902344 51.246094 C 20.402344 50.875 18.753906 50.308594 16.894531 49.710938 C 15.960938 49.410156 15.007812 49.074219 13.980469 48.730469 C 13.472656 48.558594 12.957031 48.371094 12.414062 48.203125 C 11.867188 48.042969 11.296875 47.851562 10.722656 47.644531 C 9.582031 47.21875 8.351562 46.683594 7.300781 45.691406 C 6.78125 45.199219 6.320312 44.582031 6.050781 43.859375 C 5.851562 43.351562 5.742188 42.816406 5.699219 42.269531 C 5.605469 41.992188 5.570312 41.734375 5.558594 41.511719 C 5.523438 41.390625 5.492188 41.265625 5.460938 41.128906 C 5.203125 39.996094 5.304688 38.320312 5.910156 36.359375 C 6.503906 34.382812 7.550781 32.089844 8.996094 29.492188 C 10.4375 26.894531 12.289062 24.003906 14.414062 20.773438 C 14.945312 19.964844 15.457031 19.179688 15.929688 18.414062 C 16.164062 18.03125 16.390625 17.652344 16.585938 17.285156 C 16.777344 16.894531 16.960938 16.503906 17.148438 16.128906 C 17.507812 15.367188 17.875 14.640625 18.191406 13.917969 C 18.496094 13.1875 18.789062 12.488281 19.074219 11.8125 C 20.179688 9.101562 21.023438 6.777344 21.730469 4.921875 C 21.8125 4.691406 21.898438 4.46875 21.984375 4.25 C 22.066406 4.019531 22.128906 3.808594 22.226562 3.582031 C 22.390625 3.148438 22.617188 2.746094 22.847656 2.386719 C 23.074219 2.054688 23.335938 1.777344 23.609375 1.542969 C 23.609375 1.535156 23.605469 1.539062 23.605469 1.53125 C 23.605469 1.351562 23.820312 1.210938 24.308594 1.101562 C 24.398438 1.058594 24.488281 1.058594 24.574219 1.023438 C 26.074219 0.433594 26.847656 0.984375 28.226562 1.222656 C 28.863281 1.332031 29.796875 1.515625 30.984375 1.792969 C 31.574219 1.933594 32.230469 2.09375 32.941406 2.28125 C 33.296875 2.375 33.664062 2.46875 34.046875 2.570312 C 34.238281 2.621094 34.429688 2.671875 34.628906 2.722656 C 34.824219 2.765625 35.019531 2.804688 35.21875 2.84375 C 36.875 3.160156 38.808594 3.4375 40.933594 3.867188 C 42 4.082031 43.109375 4.328125 44.257812 4.660156 C 45.40625 4.996094 46.59375 5.40625 47.757812 6.039062 C 49.554688 7.023438 50.273438 8.148438 51.296875 9.816406 C 51.632812 10.359375 51.9375 10.96875 52.117188 11.613281 C 52.152344 11.777344 52.1875 11.9375 52.226562 12.101562 C 52.265625 12.261719 52.257812 12.429688 52.273438 12.59375 " fill-opacity="1" fill-rule="nonzero"/></g><path fill="#ffffff" d="M 45.984375 15.886719 C 46.0625 15.90625 46.097656 16.09375 46.09375 16.425781 C 46.082031 16.75 46.035156 17.222656 45.886719 17.804688 C 45.742188 18.375 45.496094 19.113281 44.847656 19.765625 C 44.527344 20.089844 44.09375 20.335938 43.628906 20.484375 C 43.40625 20.570312 43.136719 20.605469 42.890625 20.644531 C 42.785156 20.652344 42.679688 20.660156 42.574219 20.667969 L 42.492188 20.675781 L 42.421875 20.679688 L 42.378906 20.675781 L 42.207031 20.671875 C 41.273438 20.679688 40.40625 20.496094 39.65625 20.289062 C 39.46875 20.234375 39.289062 20.179688 39.109375 20.125 C 38.9375 20.058594 38.769531 20.003906 38.609375 19.941406 C 38.285156 19.820312 37.996094 19.691406 37.730469 19.570312 C 36.679688 19.074219 36.09375 18.675781 36.148438 18.53125 C 36.207031 18.375 36.921875 18.542969 38.007812 18.832031 C 39.503906 19.234375 41.761719 19.917969 43.296875 19.398438 C 43.617188 19.308594 43.898438 19.171875 44.125 18.972656 C 44.589844 18.585938 44.894531 18.023438 45.117188 17.535156 C 45.558594 16.53125 45.820312 15.84375 45.984375 15.886719 " fill-opacity="1" fill-rule="nonzero"/><path fill="#ffffff" d="M 41.007812 16.941406 C 42.128906 17.277344 43.757812 14.4375 43.960938 13.445312 C 43.960938 13.289062 32.976562 10.238281 31.957031 9.949219 C 30.507812 9.542969 29.15625 8.882812 27.714844 8.484375 C 26.242188 8.078125 25.617188 8.394531 25.058594 9.925781 C 24.878906 10.425781 24.695312 10.894531 24.449219 11.351562 C 28.179688 12.875 32 14.238281 35.863281 15.375 C 36.859375 15.667969 37.855469 15.898438 38.855469 16.144531 C 39.628906 16.335938 40.257812 16.71875 41.007812 16.941406 Z M 44.925781 13.195312 C 45.070312 14.214844 43.71875 16.101562 43.199219 16.929688 C 42.300781 18.351562 41.199219 18.074219 39.824219 17.460938 C 38.511719 16.878906 36.996094 16.695312 35.613281 16.289062 C 34.171875 15.863281 32.730469 15.441406 31.3125 14.9375 C 28.714844 14.019531 26.109375 13.0625 23.5625 12.003906 C 23.132812 11.824219 23.1875 11.226562 23.5 11.085938 C 24.179688 9.816406 24.539062 7.300781 26.316406 7.3125 C 28.164062 7.324219 29.832031 8.371094 31.578125 8.863281 C 34.503906 9.683594 37.410156 10.558594 40.328125 11.40625 C 41.550781 11.761719 42.863281 12 44.058594 12.421875 C 44.480469 12.574219 44.851562 12.714844 44.925781 13.195312 " fill-opacity="1" fill-rule="nonzero"/><path fill="#ffffff" d="M 42.199219 24.921875 C 42.296875 24.800781 43.035156 23.871094 42.597656 23.75 C 42.304688 23.667969 42 23.625 41.714844 23.535156 C 40.855469 23.269531 40.023438 22.855469 39.203125 22.492188 C 38.566406 22.214844 37.683594 21.785156 37.433594 22.824219 C 37.40625 22.945312 37.375 23.0625 37.339844 23.183594 C 38.347656 23.433594 39.660156 24.316406 40.203125 24.578125 C 40.742188 24.824219 41.71875 25.503906 42.199219 24.921875 Z M 43.351562 22.996094 C 44.300781 23.761719 43.414062 25.171875 42.753906 25.820312 C 41.910156 26.652344 40.546875 25.867188 39.683594 25.46875 C 39.203125 25.234375 38.726562 24.996094 38.246094 24.765625 C 36.78125 24.089844 35.78125 24.394531 36.476562 22.542969 C 36.820312 21.621094 37.320312 20.519531 38.511719 21.011719 C 39.503906 21.421875 40.484375 21.90625 41.476562 22.339844 C 42.054688 22.59375 42.855469 22.589844 43.351562 22.996094 " fill-opacity="1" fill-rule="nonzero"/><path fill="#ffffff" d="M 40.402344 29.484375 C 40.328125 28.710938 38.9375 28.339844 38.320312 28.21875 C 37.75 28.097656 37.617188 28.136719 37.402344 28.679688 C 37.261719 29.039062 37.058594 29.382812 36.9375 29.75 C 36.722656 30.402344 36.777344 30.824219 37.4375 31.117188 C 37.796875 31.28125 38.207031 31.417969 38.601562 31.476562 C 39.832031 31.664062 40.367188 30.53125 40.402344 29.484375 Z M 41.347656 29.484375 C 41.351562 29.542969 41.347656 29.589844 41.335938 29.636719 C 41.226562 31.117188 40.28125 32.683594 38.574219 32.425781 C 37.335938 32.238281 35.5 31.570312 35.890625 29.96875 C 36.078125 29.203125 36.429688 28.316406 36.847656 27.644531 C 37.179688 27.105469 37.886719 27.164062 38.429688 27.273438 C 39.546875 27.503906 41.050781 28.046875 41.316406 29.285156 C 41.339844 29.339844 41.347656 29.40625 41.347656 29.484375 " fill-opacity="1" fill-rule="nonzero"/><path fill="#ffffff" d="M 38.007812 34.792969 C 37.933594 34.023438 36.539062 33.652344 35.929688 33.523438 C 35.355469 33.410156 35.226562 33.445312 35.007812 33.988281 C 34.863281 34.347656 34.664062 34.691406 34.539062 35.0625 C 34.328125 35.710938 34.382812 36.128906 35.042969 36.425781 C 35.40625 36.589844 35.8125 36.726562 36.207031 36.785156 C 37.4375 36.972656 37.96875 35.839844 38.007812 34.792969 Z M 38.953125 34.792969 C 38.957031 34.851562 38.953125 34.898438 38.945312 34.949219 C 38.832031 36.429688 37.882812 37.992188 36.179688 37.730469 C 34.941406 37.542969 33.109375 36.878906 33.496094 35.277344 C 33.683594 34.515625 34.035156 33.625 34.453125 32.953125 C 34.789062 32.414062 35.496094 32.472656 36.03125 32.582031 C 37.152344 32.8125 38.660156 33.351562 38.917969 34.59375 C 38.945312 34.648438 38.957031 34.71875 38.953125 34.792969 " fill-opacity="1" fill-rule="nonzero"/><path fill="#ffffff" d="M 34.859375 27.144531 C 34.773438 26.339844 33.101562 25.976562 32.472656 25.863281 C 32.136719 25.796875 31.671875 25.640625 31.496094 26.027344 C 31.324219 26.40625 31.136719 26.773438 30.957031 27.148438 C 30.546875 28.023438 30.710938 28.597656 31.648438 28.898438 C 32.007812 29.011719 32.382812 29.132812 32.757812 29.183594 C 34.078125 29.359375 34.808594 28.359375 34.859375 27.144531 Z M 35.890625 27.144531 C 35.902344 27.21875 35.890625 27.285156 35.875 27.339844 C 35.722656 28.980469 34.570312 30.460938 32.757812 30.214844 C 31.433594 30.035156 29.136719 29.367188 29.699219 27.558594 C 29.917969 26.84375 30.308594 25.652344 30.851562 25.121094 C 31.324219 24.664062 31.960938 24.714844 32.566406 24.832031 C 33.777344 25.058594 35.519531 25.566406 35.847656 26.910156 C 35.878906 26.972656 35.894531 27.050781 35.890625 27.144531 " fill-opacity="1" fill-rule="nonzero"/><path fill="#ffffff" d="M 33.433594 43.40625 C 33.714844 42.871094 34.167969 42.046875 33.90625 41.417969 C 33.328125 40.035156 31.785156 40.277344 30.996094 41.210938 C 30.472656 41.824219 30.074219 42.503906 29.703125 43.214844 C 29.320312 43.949219 28.425781 45.1875 28.507812 46.011719 C 28.59375 46.867188 30.039062 47.003906 30.914062 47.089844 C 31.121094 46.753906 31.320312 46.414062 31.539062 46.085938 C 32.183594 45.210938 32.921875 44.371094 33.433594 43.40625 Z M 34.976562 41.554688 C 35.09375 43.515625 33.503906 45.140625 32.425781 46.605469 C 32.152344 47.027344 31.898438 47.464844 31.632812 47.894531 C 31.5 48.109375 31.289062 48.164062 31.050781 48.132812 C 29.929688 47.964844 27.292969 47.757812 27.476562 46.011719 C 27.621094 44.683594 28.421875 43.371094 29.0625 42.226562 C 29.53125 41.390625 30.097656 40.429688 30.921875 39.890625 C 32.355469 38.949219 34.859375 39.5625 34.976562 41.554688 " fill-opacity="1" fill-rule="nonzero"/><path fill="#ffffff" d="M 33.605469 22.859375 C 33.707031 22.742188 34.441406 21.808594 34.003906 21.6875 C 33.714844 21.605469 33.40625 21.5625 33.121094 21.472656 C 32.261719 21.207031 31.433594 20.792969 30.609375 20.429688 C 29.972656 20.152344 29.09375 19.722656 28.84375 20.761719 C 28.816406 20.882812 28.78125 21.003906 28.75 21.121094 C 29.753906 21.371094 31.070312 22.25 31.609375 22.519531 C 32.148438 22.765625 33.128906 23.441406 33.605469 22.859375 Z M 34.761719 20.933594 C 35.710938 21.699219 34.824219 23.109375 34.164062 23.757812 C 33.316406 24.59375 31.953125 23.804688 31.089844 23.40625 C 30.609375 23.171875 30.136719 22.933594 29.65625 22.707031 C 29.269531 22.53125 27.285156 22.195312 27.554688 21.492188 C 27.949219 20.441406 28.257812 18.265625 29.917969 18.949219 C 30.914062 19.363281 31.894531 19.84375 32.886719 20.277344 C 33.460938 20.53125 34.261719 20.527344 34.761719 20.933594 " fill-opacity="1" fill-rule="nonzero"/><path fill="#ffffff" d="M 32.109375 32.640625 C 32.023438 31.835938 30.351562 31.476562 29.722656 31.359375 C 29.386719 31.292969 28.921875 31.140625 28.746094 31.527344 C 28.574219 31.902344 28.386719 32.273438 28.207031 32.648438 C 27.796875 33.519531 27.960938 34.09375 28.898438 34.398438 C 29.257812 34.511719 29.632812 34.632812 30.007812 34.683594 C 31.328125 34.859375 32.0625 33.859375 32.109375 32.640625 Z M 33.144531 32.640625 C 33.152344 32.71875 33.144531 32.78125 33.125 32.839844 C 32.972656 34.480469 31.820312 35.957031 30.007812 35.714844 C 28.683594 35.535156 26.386719 34.867188 26.949219 33.058594 C 27.167969 32.34375 27.558594 31.152344 28.101562 30.621094 C 28.574219 30.164062 29.210938 30.214844 29.820312 30.332031 C 31.027344 30.558594 32.769531 31.066406 33.097656 32.410156 C 33.128906 32.472656 33.144531 32.546875 33.144531 32.640625 " fill-opacity="1" fill-rule="nonzero"/><path fill="#ffffff" d="M 29.707031 37.796875 C 29.617188 36.992188 27.945312 36.632812 27.316406 36.515625 C 26.980469 36.449219 26.515625 36.296875 26.339844 36.683594 C 26.167969 37.058594 25.980469 37.429688 25.800781 37.804688 C 25.390625 38.675781 25.554688 39.25 26.492188 39.550781 C 26.855469 39.664062 27.226562 39.785156 27.601562 39.835938 C 28.921875 40.011719 29.65625 39.011719 29.707031 37.796875 Z M 30.738281 37.796875 C 30.746094 37.871094 30.738281 37.9375 30.71875 37.996094 C 30.570312 39.636719 29.414062 41.113281 27.601562 40.871094 C 26.277344 40.691406 23.980469 40.019531 24.542969 38.210938 C 24.761719 37.496094 25.152344 36.308594 25.699219 35.777344 C 26.167969 35.320312 26.804688 35.371094 27.414062 35.488281 C 28.621094 35.714844 30.363281 36.222656 30.691406 37.5625 C 30.722656 37.628906 30.742188 37.703125 30.738281 37.796875 " fill-opacity="1" fill-rule="nonzero"/><path fill="#ffffff" d="M 28.675781 25.769531 C 28.585938 24.964844 26.914062 24.605469 26.285156 24.484375 C 25.949219 24.421875 25.484375 24.265625 25.308594 24.652344 C 25.136719 25.027344 24.949219 25.402344 24.769531 25.773438 C 24.363281 26.648438 24.523438 27.222656 25.460938 27.523438 C 25.820312 27.636719 26.195312 27.757812 26.570312 27.808594 C 27.890625 27.984375 28.621094 26.984375 28.675781 25.769531 Z M 29.707031 25.769531 C 29.71875 25.84375 29.707031 25.910156 29.6875 25.96875 C 29.535156 27.605469 28.382812 29.082031 26.570312 28.839844 C 25.25 28.660156 22.949219 27.992188 23.511719 26.183594 C 23.734375 25.46875 24.121094 24.28125 24.667969 23.746094 C 25.136719 23.289062 25.773438 23.34375 26.382812 23.457031 C 27.59375 23.683594 29.335938 24.195312 29.660156 25.535156 C 29.691406 25.601562 29.707031 25.675781 29.707031 25.769531 " fill-opacity="1" fill-rule="nonzero"/><path fill="#ffffff" d="M 28.398438 5.289062 C 29.117188 5.671875 29.5 5.988281 29.445312 6.132812 C 29.394531 6.292969 28.875 6.230469 28.113281 6.058594 C 27.734375 5.976562 27.292969 5.867188 26.820312 5.800781 C 26.347656 5.734375 25.835938 5.707031 25.410156 5.835938 C 25.347656 5.84375 25.324219 5.867188 25.28125 5.878906 C 25.242188 5.898438 25.210938 5.894531 25.136719 5.945312 L 24.972656 6.042969 L 24.964844 6.050781 L 24.933594 6.078125 L 24.882812 6.128906 C 24.84375 6.164062 24.804688 6.1875 24.765625 6.234375 L 24.652344 6.371094 C 24.574219 6.457031 24.5 6.546875 24.429688 6.648438 C 24.140625 7.03125 23.90625 7.429688 23.6875 7.746094 C 23.476562 8.074219 23.304688 8.335938 23.160156 8.507812 C 23.019531 8.695312 22.910156 8.785156 22.832031 8.753906 C 22.757812 8.730469 22.726562 8.585938 22.734375 8.359375 C 22.753906 8.121094 22.824219 7.785156 22.945312 7.398438 C 23.082031 7.011719 23.246094 6.554688 23.539062 6.066406 C 23.808594 5.59375 24.257812 4.953125 25.078125 4.722656 C 25.820312 4.511719 26.488281 4.613281 27.03125 4.757812 C 27.582031 4.898438 28.035156 5.101562 28.398438 5.289062 " fill-opacity="1" fill-rule="nonzero"/><path fill="#ffffff" d="M 26.613281 42.953125 C 26.523438 42.148438 24.851562 41.785156 24.222656 41.671875 C 23.886719 41.605469 23.421875 41.449219 23.246094 41.835938 C 23.078125 42.214844 22.886719 42.585938 22.707031 42.957031 C 22.300781 43.832031 22.460938 44.40625 23.398438 44.707031 C 23.761719 44.820312 24.132812 44.941406 24.511719 44.992188 C 25.828125 45.167969 26.558594 44.167969 26.613281 42.953125 Z M 27.644531 42.953125 C 27.65625 43.027344 27.644531 43.09375 27.625 43.152344 C 27.476562 44.792969 26.320312 46.269531 24.511719 46.023438 C 23.1875 45.84375 20.886719 45.175781 21.453125 43.367188 C 21.671875 42.652344 22.058594 41.464844 22.605469 40.933594 C 23.078125 40.472656 23.710938 40.527344 24.320312 40.640625 C 25.53125 40.871094 27.273438 41.378906 27.597656 42.71875 C 27.628906 42.785156 27.644531 42.859375 27.644531 42.953125 " fill-opacity="1" fill-rule="nonzero"/><path fill="#ffffff" d="M 25.925781 31.265625 C 25.835938 30.460938 24.164062 30.101562 23.539062 29.984375 C 23.199219 29.917969 22.734375 29.765625 22.5625 30.152344 C 22.390625 30.527344 22.199219 30.898438 22.019531 31.273438 C 21.613281 32.148438 21.773438 32.71875 22.710938 33.023438 C 23.074219 33.136719 23.449219 33.257812 23.820312 33.308594 C 25.140625 33.484375 25.875 32.484375 25.925781 31.265625 Z M 26.957031 31.265625 C 26.96875 31.34375 26.957031 31.410156 26.9375 31.464844 C 26.789062 33.105469 25.632812 34.582031 23.820312 34.339844 C 22.5 34.160156 20.199219 33.492188 20.761719 31.683594 C 20.984375 30.96875 21.371094 29.777344 21.917969 29.246094 C 22.390625 28.789062 23.023438 28.839844 23.632812 28.957031 C 24.84375 29.183594 26.585938 29.691406 26.910156 31.03125 C 26.941406 31.097656 26.960938 31.175781 26.957031 31.265625 " fill-opacity="1" fill-rule="nonzero"/><path fill="#ffffff" d="M 25.359375 20.113281 C 25.457031 19.992188 26.191406 19.058594 25.757812 18.941406 C 25.464844 18.855469 25.15625 18.8125 24.871094 18.722656 C 24.015625 18.457031 23.183594 18.046875 22.359375 17.683594 C 21.726562 17.402344 20.84375 16.972656 20.59375 18.011719 C 20.566406 18.136719 20.53125 18.25 20.503906 18.371094 C 21.503906 18.621094 22.820312 19.503906 23.363281 19.769531 C 23.902344 20.015625 24.882812 20.691406 25.359375 20.113281 Z M 26.511719 18.183594 C 27.460938 18.949219 26.574219 20.359375 25.914062 21.007812 C 25.070312 21.84375 23.703125 21.054688 22.84375 20.65625 C 22.359375 20.421875 21.886719 20.183594 21.40625 19.957031 C 20.855469 19.703125 20.363281 19.59375 20.011719 19.433594 C 19.511719 19.207031 19.296875 18.882812 19.582031 17.90625 C 19.875 16.925781 20.433594 15.6875 21.671875 16.199219 C 22.664062 16.613281 23.648438 17.09375 24.636719 17.53125 C 25.214844 17.78125 26.015625 17.777344 26.511719 18.183594 " fill-opacity="1" fill-rule="nonzero"/><path fill="#ffffff" d="M 23.519531 36.421875 C 23.429688 35.617188 21.761719 35.257812 21.132812 35.140625 C 20.792969 35.074219 20.332031 34.921875 20.15625 35.308594 C 19.984375 35.683594 19.792969 36.054688 19.617188 36.429688 C 19.207031 37.300781 19.367188 37.875 20.304688 38.179688 C 20.667969 38.292969 21.042969 38.410156 21.417969 38.464844 C 22.734375 38.640625 23.46875 37.640625 23.519531 36.421875 Z M 24.550781 36.421875 C 24.5625 36.496094 24.550781 36.5625 24.535156 36.621094 C 24.382812 38.261719 23.230469 39.738281 21.417969 39.492188 C 20.09375 39.316406 17.792969 38.644531 18.359375 36.839844 C 18.578125 36.125 18.964844 34.933594 19.511719 34.402344 C 19.984375 33.945312 20.617188 33.996094 21.226562 34.113281 C 22.4375 34.339844 24.179688 34.847656 24.507812 36.1875 C 24.539062 36.253906 24.554688 36.328125 24.550781 36.421875 " fill-opacity="1" fill-rule="nonzero"/><path fill="#ffffff" d="M 21.800781 23.707031 C 21.710938 22.902344 20.042969 22.542969 19.414062 22.421875 C 19.074219 22.359375 18.613281 22.203125 18.4375 22.59375 C 18.265625 22.96875 18.074219 23.339844 17.898438 23.714844 C 17.488281 24.585938 17.648438 25.160156 18.585938 25.460938 C 18.949219 25.574219 19.324219 25.695312 19.699219 25.746094 C 21.019531 25.921875 21.75 24.921875 21.800781 23.707031 Z M 22.832031 23.707031 C 22.84375 23.78125 22.832031 23.847656 22.8125 23.90625 C 22.664062 25.542969 21.511719 27.023438 19.699219 26.777344 C 18.375 26.601562 16.074219 25.929688 16.640625 24.121094 C 16.859375 23.40625 17.246094 22.21875 17.792969 21.683594 C 18.265625 21.226562 18.902344 21.28125 19.507812 21.398438 C 20.71875 21.625 22.460938 22.132812 22.785156 23.472656 C 22.816406 23.539062 22.835938 23.613281 22.832031 23.707031 " fill-opacity="1" fill-rule="nonzero"/><path fill="#ffffff" d="M 20.425781 41.578125 C 20.335938 40.773438 18.667969 40.414062 18.039062 40.292969 C 17.703125 40.230469 17.234375 40.074219 17.0625 40.464844 C 16.890625 40.835938 16.703125 41.210938 16.523438 41.585938 C 16.113281 42.457031 16.273438 43.03125 17.210938 43.332031 C 17.574219 43.449219 17.949219 43.566406 18.324219 43.617188 C 19.640625 43.792969 20.375 42.792969 20.425781 41.578125 Z M 21.457031 41.578125 C 21.46875 41.652344 21.457031 41.71875 21.441406 41.777344 C 21.289062 43.414062 20.136719 44.894531 18.324219 44.648438 C 17 44.472656 14.699219 43.800781 15.261719 41.992188 C 15.484375 41.277344 15.871094 40.089844 16.417969 39.554688 C 16.890625 39.097656 17.523438 39.152344 18.136719 39.269531 C 19.34375 39.492188 21.085938 40.003906 21.414062 41.34375 C 21.441406 41.410156 21.460938 41.484375 21.457031 41.578125 " fill-opacity="1" fill-rule="nonzero"/><path fill="#ffffff" d="M 19.050781 29.203125 C 18.960938 28.402344 17.292969 28.039062 16.664062 27.921875 C 16.328125 27.859375 15.863281 27.703125 15.6875 28.09375 C 15.515625 28.464844 15.324219 28.835938 15.148438 29.210938 C 14.738281 30.085938 14.902344 30.660156 15.839844 30.960938 C 16.199219 31.074219 16.574219 31.195312 16.949219 31.246094 C 18.269531 31.421875 19 30.421875 19.050781 29.203125 Z M 20.082031 29.203125 C 20.09375 29.28125 20.082031 29.34375 20.066406 29.402344 C 19.914062 31.042969 18.765625 32.523438 16.949219 32.277344 C 15.625 32.097656 13.324219 31.429688 13.890625 29.621094 C 14.109375 28.90625 14.496094 27.714844 15.042969 27.183594 C 15.515625 26.726562 16.148438 26.777344 16.757812 26.894531 C 17.96875 27.121094 19.710938 27.628906 20.039062 28.96875 C 20.070312 29.035156 20.085938 29.113281 20.082031 29.203125 " fill-opacity="1" fill-rule="nonzero"/><path fill="#ffffff" d="M 16.644531 34.359375 C 16.558594 33.554688 14.886719 33.195312 14.257812 33.078125 C 13.917969 33.011719 13.457031 32.855469 13.28125 33.246094 C 13.109375 33.621094 12.917969 33.992188 12.742188 34.367188 C 12.332031 35.238281 12.496094 35.816406 13.433594 36.117188 C 13.792969 36.230469 14.167969 36.351562 14.542969 36.402344 C 15.863281 36.578125 16.59375 35.578125 16.644531 34.359375 Z M 17.675781 34.359375 C 17.6875 34.433594 17.675781 34.5 17.660156 34.558594 C 17.507812 36.199219 16.359375 37.675781 14.542969 37.433594 C 13.21875 37.253906 10.921875 36.582031 11.484375 34.777344 C 11.703125 34.0625 12.09375 32.871094 12.636719 32.339844 C 13.109375 31.882812 13.746094 31.933594 14.351562 32.050781 C 15.5625 32.277344 17.304688 32.785156 17.632812 34.125 C 17.664062 34.191406 17.679688 34.265625 17.675781 34.359375 " fill-opacity="1" fill-rule="nonzero"/><path fill="#ffffff" d="M 13.554688 39.515625 C 13.464844 38.710938 11.792969 38.351562 11.164062 38.234375 C 10.828125 38.167969 10.363281 38.011719 10.1875 38.402344 C 10.015625 38.777344 9.828125 39.148438 9.648438 39.523438 C 9.242188 40.394531 9.402344 40.96875 10.339844 41.269531 C 10.699219 41.382812 11.074219 41.503906 11.449219 41.554688 C 12.769531 41.730469 13.5 40.730469 13.554688 39.515625 Z M 14.582031 39.515625 C 14.59375 39.589844 14.582031 39.65625 14.566406 39.714844 C 14.414062 41.351562 13.265625 42.832031 11.449219 42.585938 C 10.125 42.410156 7.828125 41.738281 8.390625 39.929688 C 8.613281 39.214844 9 38.027344 9.546875 37.492188 C 10.015625 37.035156 10.652344 37.089844 11.261719 37.207031 C 12.46875 37.433594 14.214844 37.941406 14.539062 39.28125 C 14.570312 39.347656 14.585938 39.421875 14.582031 39.515625 " fill-opacity="1" fill-rule="nonzero"/></svg>